<svg width="139" height="139" viewBox="0 0 139 139" fill="none" xmlns="http://www.w3.org/2000/svg">
<path d="M19.5053 80.9736C18.2413 79.5581 9.90697 70.0842 9.46933 62.8469C9.40851 61.8404 9.31389 60.2768 10.1595 58.6811C11.8485 55.4952 15.0915 56.3285 16.4913 53.94C18.3375 50.7899 13.6891 47.6474 14.248 40.3606C14.3821 38.6131 14.5908 35.8919 16.5381 33.8261C18.7123 31.5201 20.8159 32.4045 23.0674 30.4097C25.8746 27.9228 24.3626 24.9894 26.2887 20.758C28.3177 16.3007 33.7117 11.3932 39.358 12.1731C44.2815 12.8523 47.53 17.598 48.6887 21.2479C50.4006 26.6408 48.4047 32.3328 45.3594 35.7621C40.9819 40.6925 34.664 40.6925 34.7181 43.0452C34.7686 45.236 40.2483 45.3291 41.3694 49.0432C42.1521 51.6369 40.531 55.0732 38.162 56.6986C34.8786 58.9505 31.6325 56.7131 29.9099 58.6834C28.1037 60.7499 30.8357 64.1686 30.5515 68.3123C30.3173 71.7302 27.9974 76.1318 19.5053 80.9736Z" fill="white"/>
<path d="M38.1703 12.2595C33.244 12.2595 28.4454 16.4252 26.4413 20.8276C25.627 22.6163 25.4335 24.1844 25.2629 25.5687C25.031 27.4482 24.8308 29.0714 23.1786 30.535C22.0875 31.5018 21.0269 31.8109 20.0012 32.1093C18.8572 32.442 17.7765 32.7571 16.6602 33.9407C14.7536 35.9637 14.55 38.6178 14.4153 40.3737C14.1302 44.0915 15.2157 46.7204 16.088 48.8326C16.9174 50.8411 17.5723 52.4268 16.6361 54.0248C15.9627 55.174 14.9024 55.6006 13.7798 56.0523C12.5068 56.5651 11.1904 57.0955 10.3077 58.7598C9.48423 60.3135 9.57595 61.8321 9.63677 62.8363C10.051 69.6882 17.7568 78.75 19.5405 80.7608C26.4413 76.8026 30.0893 72.6109 30.3847 68.3009C30.5063 66.5274 30.0627 64.8738 29.6714 63.4147C29.1524 61.4803 28.7042 59.8091 29.7841 58.5736C30.6653 57.5648 31.885 57.5938 33.2976 57.6259C34.7562 57.6602 36.4101 57.6976 38.0675 56.5606C40.4906 54.8985 41.9293 51.4783 41.2092 49.0921C40.6168 47.1294 38.772 46.2167 37.1443 45.4124C35.7662 44.731 34.5762 44.1426 34.551 43.0491C34.5229 41.8335 35.946 41.226 37.9157 40.3851C40.0326 39.4816 42.9319 38.2438 45.2344 35.6508C47.9022 32.6465 50.366 27.085 48.5292 21.2992C47.2582 17.2952 43.9225 12.9722 39.3354 12.3388C38.9472 12.2854 38.5583 12.2595 38.1703 12.2595ZM19.5057 81.1416C19.4592 81.1416 19.4133 81.1225 19.3807 81.0859C17.122 78.5555 9.71995 69.7638 9.30238 62.8569C9.23934 61.8145 9.14411 60.2395 10.0118 58.6034C10.9517 56.8299 12.3877 56.2515 13.6547 55.7418C14.7227 55.3114 15.7314 54.9054 16.347 53.8554C17.1991 52.4009 16.6031 50.9579 15.7784 48.9608C14.8926 46.8158 13.79 44.1457 14.0812 40.3485C14.2196 38.5453 14.4285 35.8202 16.4165 33.7118C17.5954 32.461 18.7708 32.1184 19.9076 31.788C20.8977 31.4995 21.9216 31.2012 22.9566 30.2847C24.5138 28.905 24.6977 27.4147 24.9303 25.5275C25.1039 24.1203 25.3007 22.5247 26.1365 20.6887C28.3492 15.8277 33.9076 11.2499 39.3812 12.0069C44.113 12.6601 47.5458 17.0937 48.8486 21.1977C50.7275 27.1178 48.211 32.8029 45.4849 35.8736C43.1326 38.5224 40.1934 39.7777 38.0473 40.6934C36.1987 41.4824 34.8631 42.0525 34.8858 43.0415C34.9063 43.932 36.0122 44.4791 37.2928 45.1118C38.8979 45.9054 40.8956 46.8936 41.5299 48.9952C42.3015 51.5516 40.8332 55.0695 38.2571 56.8368C36.5106 58.0349 34.7995 57.9952 33.2898 57.9609C31.9617 57.9303 30.8144 57.9036 30.0363 58.7942C29.0741 59.8946 29.4805 61.4101 29.995 63.3285C30.3931 64.8128 30.8444 66.4946 30.7189 68.3238C30.4137 72.7772 26.6689 77.0827 19.5885 81.1195C19.5627 81.134 19.534 81.1416 19.5057 81.1416Z" fill="black"/>
<path d="M18.843 79.7822C18.7618 79.7822 18.6904 79.7227 18.6777 79.6395C17.5937 72.5869 17.9079 65.3138 19.6115 58.0216C20.9739 52.1908 23.2228 46.3355 26.2957 40.6183C31.5272 30.885 37.4184 24.8435 37.4773 24.784C37.5421 24.7176 37.6479 24.7168 37.7142 24.7817C37.7801 24.8465 37.781 24.9526 37.7161 25.019C37.6575 25.0777 31.7945 31.0918 26.5859 40.7854C21.7826 49.7252 16.569 63.7136 19.0088 79.5884C19.0229 79.68 18.9601 79.7662 18.8687 79.7799C18.86 79.7815 18.8515 79.7822 18.843 79.7822Z" fill="black"/>
<path d="M19.5068 80.9736C4.62156 65.778 2.66504 57.419 4.09662 52.4718C4.52381 50.9952 5.74401 48.0878 5.57528 43.9136C5.35612 38.4994 3.01347 36.217 1.66629 32.1634C-0.968771 24.2355 1.89462 14.6151 6.84234 8.63235C10.2987 4.4536 17.7279 -1.5253 24.4914 0.622833C27.3514 1.53092 30.8622 4.13768 30.8275 6.9871C30.7778 11.0644 23.1 11.7374 21.5894 17.7659C20.765 21.0556 22.7995 21.7959 21.8947 25.2809C20.469 30.773 14.7536 31.4911 14.8741 34.9609C14.991 38.3208 20.4364 38.5055 21.212 42.582C22.0968 47.2331 15.8999 50.2496 17.2132 54.5573C17.9953 57.1214 20.3534 56.5803 21.5767 59.4404C23.0651 62.9202 20.3867 65.6223 19.3721 72.0141C18.8031 75.5983 19.157 78.6553 19.5068 80.9736Z" fill="white"/>
<path d="M21.4973 0.333694C15.6057 0.333694 9.78591 5.33506 6.97029 8.73926C2.53346 14.1039 -0.969477 23.706 1.82409 32.1108C2.27523 33.4676 2.84672 34.6412 3.39951 35.776C4.52844 38.095 5.59488 40.2844 5.74147 43.9068C5.88531 47.4652 5.01942 50.1383 4.50212 51.7355C4.40535 52.0346 4.32179 52.2925 4.25632 52.5184C3.43049 55.3724 3.96108 58.8338 5.83327 62.8081C8.18095 67.7911 12.6993 73.738 19.2651 80.4876C18.925 78.0907 18.6893 75.2405 19.2055 71.9882C19.6106 69.4356 20.2654 67.5103 20.8429 65.8117C21.6852 63.3354 22.2936 61.5452 21.4215 59.5061C20.8291 58.1211 19.9675 57.5648 19.1341 57.0268C18.2734 56.4705 17.4602 55.9455 17.0518 54.6063C16.3641 52.3505 17.6823 50.4123 18.9573 48.5381C20.1929 46.7219 21.4705 44.8431 21.0463 42.6134C20.6638 40.6026 19.1123 39.5754 17.6121 38.5827C16.1483 37.6135 14.7658 36.6986 14.7056 34.9663C14.6453 33.2325 15.9532 32.1688 17.4674 30.9371C19.1222 29.591 20.9977 28.0648 21.7314 25.2391C22.1807 23.5076 21.8956 22.5026 21.5935 21.438C21.3068 20.4277 21.0104 19.383 21.4257 17.7256C22.2371 14.487 24.767 12.7822 26.9991 11.2781C28.9508 9.96329 30.6363 8.82703 30.6588 6.9849C30.6905 4.38425 27.4552 1.7401 24.4395 0.782402C23.466 0.473351 22.4804 0.333694 21.4973 0.333694ZM19.5058 81.1416C19.4617 81.1416 19.4182 81.1241 19.386 81.0912C12.5985 74.1615 7.93661 68.059 5.53024 62.9508C3.62218 58.901 3.08534 55.3602 3.9346 52.4253C4.00145 52.1949 4.08577 51.9339 4.18337 51.6325C4.69388 50.0566 5.54818 47.4186 5.40677 43.9206C5.26293 40.3675 4.21153 38.2087 3.09831 35.9232C2.54079 34.7786 1.96419 33.5942 1.50626 32.2161C-1.32752 23.6907 2.2183 13.9596 6.71213 8.52559C10.0511 4.48802 17.5636 -1.75262 24.5409 0.463417C27.2429 1.32114 31.0313 3.91341 30.9938 6.98872C30.9692 9.00636 29.2162 10.1884 27.1863 11.5559C25.0042 13.0264 22.5309 14.6938 21.7507 17.8064C21.3571 19.3777 21.6285 20.3338 21.9158 21.3465C22.2168 22.4072 22.5279 23.5038 22.0556 25.323C21.2943 28.2556 19.3735 29.8184 17.6789 31.1966C16.1744 32.4206 14.9859 33.3875 15.0404 34.9549C15.0945 36.5146 16.3468 37.3434 17.797 38.3034C19.2826 39.287 20.9665 40.4011 21.3754 42.5508C21.8256 44.9172 20.5083 46.8539 19.2343 48.7266C17.9471 50.6183 16.7314 52.4062 17.3723 54.5078C17.7449 55.7303 18.473 56.2004 19.316 56.7452C20.1507 57.2847 21.0969 57.8952 21.7295 59.3741C22.6521 61.5314 22.0264 63.372 21.1602 65.9192C20.5868 67.6057 19.937 69.5165 19.5364 72.0409C18.9901 75.4824 19.298 78.4753 19.6713 80.9485C19.6821 81.0203 19.6454 81.0912 19.5804 81.1241C19.5566 81.1355 19.5311 81.1416 19.5058 81.1416Z" fill="black"/>
<path d="M18.5955 79.3535C18.5322 79.3535 18.4717 79.3176 18.4433 79.2566C14.7025 71.1708 11.9316 62.6179 10.2074 53.8354C8.71075 46.212 8.09828 38.8107 8.43618 32.4319C8.95525 22.6337 11.5889 15.6902 13.7068 11.5901C16.0058 7.14044 18.2179 4.97781 18.24 4.95644C18.3068 4.89234 18.4126 4.89387 18.4768 4.96026C18.5411 5.02664 18.5393 5.13271 18.4728 5.19682C18.4511 5.21819 16.2703 7.35334 13.996 11.7603C11.8967 15.8291 9.28613 22.7207 8.77073 32.4495C8.02365 46.5531 11.7532 63.9984 18.7474 79.1162C18.7863 79.2001 18.7497 79.2993 18.6657 79.3383C18.643 79.3489 18.619 79.3535 18.5955 79.3535Z" fill="black"/>
<path d="M87.9496 102.694L59.4798 102.872C59.2952 102.872 59.2349 103.042 59.2349 103.206V127.311C59.2349 129.62 42.8082 135.616 42.6505 135.311L42.6309 137.862C42.6296 138.337 43.0493 138.759 43.5842 138.759H68.0678C69.1758 138.759 70.2693 138.512 71.2728 138.094L84.3966 132.594C86.7592 131.605 88.2495 129.478 88.2495 127.159V103.028C88.2495 102.864 88.1343 102.694 87.9496 102.694Z" fill="black"/>
<path d="M42.8163 135.478L42.7979 137.864C42.7974 138.043 42.8728 138.218 43.0099 138.356C43.1613 138.508 43.3651 138.591 43.5837 138.591H68.0673C69.0983 138.591 70.1842 138.366 71.2075 137.94L84.3313 132.44C86.6099 131.486 88.082 129.412 88.082 127.158V103.028C88.082 102.961 88.04 102.862 87.9499 102.861L59.4801 103.039C59.4115 103.039 59.4015 103.143 59.4015 103.206V127.311C59.4015 129.662 44.8951 134.976 42.9913 135.439C42.9301 135.454 42.8712 135.468 42.8163 135.478ZM68.0673 138.926H43.5837C43.2754 138.926 42.9874 138.808 42.7728 138.592C42.5723 138.392 42.4622 138.131 42.4629 137.862L42.4826 135.309C42.4831 135.232 42.5362 135.166 42.6112 135.148C42.6451 135.14 42.6792 135.142 42.7099 135.155C43.6584 135.113 56.0019 130.546 58.6155 128.026C58.9887 127.665 59.0665 127.439 59.0665 127.311V103.206C59.0665 102.901 59.2283 102.704 59.4794 102.704L87.9484 102.526C87.9484 102.526 87.9484 102.526 87.9492 102.526C88.2376 102.526 88.417 102.787 88.417 103.028V127.158C88.417 129.547 86.864 131.742 84.461 132.748L71.3365 138.249C70.2727 138.692 69.1425 138.926 68.0673 138.926Z" fill="black"/>
<path d="M56.0256 101.539V125.65C56.0256 128.027 54.4887 130.193 52.0735 131.218L43.2201 134.979C42.6418 135.225 42.8388 135.996 43.48 135.996H67.8056C68.8991 135.996 69.9797 135.781 70.9687 135.367L80.7783 131.256C83.2111 130.237 84.7633 128.062 84.7633 125.674V101.539C84.7633 101.44 84.6732 101.36 84.5618 101.36H56.2271C56.1157 101.36 56.0256 101.44 56.0256 101.539Z" fill="white"/>
<path d="M56.1948 101.54V125.65C56.1948 128.08 54.6038 130.326 52.1412 131.372L43.2877 135.133C43.075 135.223 43.0271 135.393 43.0533 135.521C43.0844 135.674 43.229 135.828 43.4821 135.828H67.8077C68.8722 135.828 69.9436 135.615 70.9059 135.211L80.7156 131.101C83.0743 130.113 84.5982 127.983 84.5982 125.673V101.539C84.5967 101.537 84.5853 101.527 84.5639 101.527H56.2292C56.2093 101.527 56.1979 101.537 56.1948 101.54ZM67.8077 136.163H43.4821C43.0399 136.163 42.7833 135.875 42.7251 135.588C42.6589 135.263 42.8285 134.964 43.1567 134.825L52.01 131.064C54.3489 130.07 55.8598 127.945 55.8598 125.65V101.539C55.8598 101.348 56.0254 101.192 56.2292 101.192H84.5639C84.7677 101.192 84.9332 101.348 84.9332 101.539V125.673C84.9332 128.118 83.3284 130.37 80.8453 131.41L71.0356 135.521C70.0321 135.941 68.9165 136.163 67.8077 136.163Z" fill="black"/>
<path d="M3.99023 115.175L126.88 115.285C127.955 115.285 128.859 114.559 128.996 113.497L138.805 37.1466C139.043 35.2945 137.686 33.5455 135.813 33.5455L130.638 33.5631L71.8295 37.9051L14.494 33.9675L3.99023 115.175Z" fill="black"/>
<path d="M4.18035 115.008L126.88 115.117C127.887 115.117 128.707 114.427 128.83 113.476L138.638 37.1251C138.752 36.2307 138.481 35.3356 137.894 34.6671C137.353 34.0513 136.613 33.7125 135.813 33.7125L130.638 33.7308L71.8412 38.0721C71.8335 38.0729 71.8251 38.0729 71.8175 38.0721L14.6395 34.1452L4.18035 115.008ZM126.88 115.452L3.98958 115.343C3.9415 115.343 3.89572 115.322 3.86389 115.286C3.83215 115.25 3.81742 115.202 3.82368 115.154L14.3275 33.946C14.3388 33.8575 14.4167 33.7949 14.505 33.8003L71.8289 37.7371L130.625 33.3958L135.812 33.3775C136.711 33.3775 137.54 33.7568 138.146 34.4466C138.796 35.1861 139.097 36.1781 138.97 37.1678L129.162 113.518C129.017 114.639 128.058 115.452 126.88 115.452Z" fill="black"/>
<path d="M2.9712 115.065H123.392C124.466 115.065 125.372 114.268 125.51 113.202L135.393 37.5686C135.664 35.4732 134.033 33.6173 131.922 33.6173L12.8959 33.8104C11.8225 33.8104 10.916 34.6078 10.7786 35.6731L0.853821 112.656C0.689067 113.934 1.68369 115.065 2.9712 115.065Z" fill="white"/>
<path d="M131.923 33.7845L12.8973 33.9776C11.9109 33.9776 11.072 34.7162 10.9458 35.6953L1.02102 112.677C0.948682 113.239 1.12152 113.805 1.49537 114.23C1.86875 114.654 2.40712 114.898 2.97228 114.898H123.393C124.38 114.898 125.219 114.16 125.344 113.181L135.228 37.5474C135.351 36.5958 135.058 35.6365 134.425 34.9162C133.792 34.1973 132.88 33.7845 131.923 33.7845ZM123.393 115.233H2.97228C2.31074 115.233 1.6808 114.948 1.24377 114.451C0.806363 113.954 0.604142 113.291 0.688846 112.634L10.6136 35.6518C10.7612 34.5064 11.7428 33.6426 12.897 33.6426L131.922 33.4495C132.976 33.4495 133.98 33.9035 134.676 34.6956C135.373 35.4877 135.696 36.5431 135.561 37.5901L125.676 113.224C125.529 114.37 124.547 115.233 123.393 115.233Z" fill="black"/>
<path d="M15.5265 36.7814C14.5861 36.7814 13.7867 37.4377 13.667 38.3084L4.17306 107.359C4.10705 107.839 4.25082 108.31 4.57781 108.685C4.93571 109.095 5.46599 109.33 6.03251 109.33H121.227C122.168 109.33 122.967 108.674 123.087 107.804L132.39 40.136C132.503 39.318 132.258 38.5159 131.701 37.8772C131.094 37.1813 130.196 36.7814 129.235 36.7814H15.5265ZM121.227 109.666H6.03251C5.36915 109.666 4.74684 109.388 4.32538 108.905C3.93375 108.456 3.76183 107.891 3.84119 107.313L13.3351 38.2626C13.4775 37.2271 14.4196 36.4464 15.5265 36.4464H129.235C130.292 36.4464 131.283 36.8875 131.954 37.6575C132.575 38.3694 132.848 39.2661 132.722 40.1818L123.418 107.85C123.277 108.885 122.334 109.666 121.227 109.666Z" fill="black"/>
<path d="M39.9898 39.6769C40.0191 39.1481 39.8401 38.6299 39.4912 38.2324C38.5827 37.1953 36.4972 35.4722 33.0219 36.0942C28.1552 36.9664 25.4615 40.7704 24.3801 44.4402C20.8975 56.2584 7.88943 51.5897 2.5407 58.6865C-1.83927 64.4983 1.0686 78.9728 11.1914 78.0045C21.3141 77.0353 34.6976 59.1635 34.6976 59.1635L39.5643 47.3461L39.9898 39.6769Z" fill="black"/>
<path d="M11.5744 72.7911L10.4297 70.8681C10.4297 70.8681 19.337 60.4014 27.2605 58.6928L37.0317 60.9463C37.0317 60.9463 41.4798 62.1817 43.5546 64.9587C45.6294 67.7356 48.39 73.9984 48.39 73.9984L46.2375 74.9622L48.7057 96.5358C48.7057 96.5358 43.34 100.595 38.4035 101.129C33.4669 101.662 23.8085 102.197 19.1939 105.294C19.1939 105.294 13.7207 100.915 13.3988 98.8854C13.3988 98.8854 18.4426 80.9792 11.5744 72.7911Z" fill="white"/>
<path d="M13.5698 98.8944C13.9083 100.708 18.4833 104.499 19.2034 105.086C23.2839 102.423 31.0766 101.673 36.248 101.175C37.0181 101.101 37.7454 101.031 38.385 100.962C42.9021 100.473 47.8565 96.9501 48.528 96.4586L46.0707 74.9811C46.0624 74.9086 46.102 74.8392 46.1687 74.8094L48.1685 73.9135C47.7317 72.9398 45.2806 67.5493 43.4199 65.0593C41.4028 62.3594 37.0304 61.1194 36.9865 61.1079L27.2589 58.8644C19.8797 60.4807 11.5303 69.86 10.6351 70.8863L11.711 72.6933C15.2871 76.9667 15.5981 83.8758 15.2289 88.9207C14.849 94.1129 13.6911 98.4503 13.5698 98.8944ZM19.1935 105.461C19.1563 105.461 19.1192 105.449 19.0888 105.424C18.8632 105.244 13.5613 100.982 13.233 98.912C13.2292 98.8883 13.2305 98.8639 13.2372 98.8403C13.2873 98.6617 18.1779 80.9242 11.4457 72.8986C11.4399 72.8918 11.4347 72.8841 11.4301 72.8765L10.2853 70.9542C10.2486 70.8924 10.2552 70.8146 10.3017 70.7596C10.3911 70.6543 19.3369 60.2296 27.2247 58.5294C27.2489 58.5241 27.2737 58.5241 27.2976 58.5294L37.0689 60.7829C37.26 60.8355 41.6033 62.0679 43.6884 64.8586C45.7506 67.6187 48.5153 73.8678 48.5429 73.9311C48.58 74.015 48.5421 74.1135 48.458 74.1516L46.4174 75.0651L48.8718 96.5174C48.8784 96.5761 48.8536 96.6341 48.8063 96.67C48.7524 96.7104 43.3466 100.762 38.421 101.295C37.7794 101.365 37.0512 101.435 36.2802 101.509C31.0982 102.007 23.2675 102.761 19.2868 105.433C19.2585 105.452 19.2259 105.461 19.1935 105.461Z" fill="black"/>
<path d="M15.7473 100.751C15.7473 100.751 12.3895 102.77 10.2969 109.498H39.0039L38.4027 101.128L15.7473 100.751Z" fill="black"/>
<path d="M19.1939 105.461C19.1567 105.461 19.1196 105.449 19.0892 105.424C19.0728 105.411 17.4433 104.104 15.9249 102.606C15.8589 102.541 15.8583 102.435 15.9233 102.369C15.9884 102.303 16.0943 102.302 16.1602 102.367C17.4568 103.647 18.8357 104.786 19.2038 105.086C23.2842 102.423 31.077 101.673 36.2484 101.175C37.0185 101.101 37.7458 101.031 38.3854 100.962C40.0007 100.787 41.8362 100.212 43.8405 99.2516C43.924 99.2119 44.024 99.2462 44.064 99.3302C44.1039 99.4134 44.0687 99.5133 43.9853 99.5538C41.9466 100.531 40.0746 101.116 38.4214 101.295C37.7798 101.365 37.0516 101.435 36.2805 101.509C31.0987 102.007 23.2678 102.761 19.2872 105.433C19.2589 105.452 19.2263 105.461 19.1939 105.461Z" fill="black"/>
<path d="M39.8767 82.1406C39.872 82.1406 39.8673 82.1399 39.8625 82.1399C39.7703 82.1322 39.7019 82.0513 39.7096 81.959L40.2819 75.1239C40.2896 75.0316 40.3707 74.9621 40.4628 74.9705C40.5549 74.9782 40.6235 75.059 40.6158 75.1514L40.0434 81.9865C40.0361 82.0742 39.9629 82.1406 39.8767 82.1406Z" fill="black"/>
<path d="M39.7214 90.1921C38.49 90.4989 33.6327 89.3711 33.3248 89.0651C33.3248 89.0651 36.0954 88.4714 36.7495 88.012C37.4037 87.5526 37.5961 87.0932 37.4807 86.672C37.3652 86.2507 32.6226 86.894 31.5067 87.2771C30.3907 87.6602 29.092 88.6057 28.0916 88.9117C27.8684 88.9803 27.1847 89.0788 26.219 89.1795C26.2405 89.0025 14.1768 89.4489 10.9259 88.4645C10.9259 88.4645 16.4191 82.845 19.7146 79.7407C20.3397 79.1516 20.4998 78.2214 20.1032 77.4606C17.6633 72.782 13.8041 72.0212 11.9661 71.941C8.59872 76.5586 5.27328 81.9697 3.6761 84.3582C0.57501 88.9956 -1.18424 94.6227 1.46089 95.4934C7.86141 97.6011 27.2632 94.145 28.2071 94.2343C30.6312 94.4648 33.5558 95.4988 35.0948 95.192C36.634 94.886 42.4888 93.1515 43.2042 91.4421C43.7626 90.1082 40.9529 89.8861 39.7214 90.1921Z" fill="white"/>
<path d="M12.0471 72.1125C9.6473 75.4098 7.27245 79.1017 5.53495 81.8023C4.85296 82.863 4.264 83.778 3.81423 84.4511C1.20847 88.3475 -0.155273 92.3934 0.497866 94.2905C0.680781 94.8216 1.02212 95.1726 1.51226 95.3344C6.51309 96.9812 19.7299 95.1764 25.3738 94.4057C27.1961 94.1569 28.01 94.0471 28.2218 94.0677C29.2004 94.1608 30.2513 94.3813 31.2674 94.595C32.7607 94.9086 34.171 95.2047 35.061 95.0276C36.7598 94.6896 42.3908 92.949 43.0486 91.3777C43.1456 91.1457 43.1256 90.9618 42.9858 90.7985C42.4827 90.2125 40.6825 90.1255 39.7608 90.3544C39.7608 90.3544 39.7608 90.3544 39.7607 90.3544C38.4677 90.6764 33.5562 89.5325 33.2057 89.1838C33.1621 89.1403 33.1457 89.077 33.1631 89.0175C33.1804 88.9587 33.2286 88.9137 33.2887 88.9015C34.0502 88.7382 36.1386 88.2353 36.6522 87.8743C37.1825 87.5019 37.4093 87.1242 37.3268 86.7518C36.8337 86.5221 32.6402 87.0647 31.56 87.4355C31.0236 87.6195 30.4324 87.943 29.8606 88.2559C29.2449 88.5932 28.6633 88.9114 28.1396 89.0716C27.901 89.1449 27.207 89.2449 26.2354 89.3456C26.2003 89.3486 26.1665 89.3418 26.1368 89.3257C25.935 89.2945 24.8441 89.2975 23.588 89.2998C19.6979 89.3097 13.1858 89.3235 10.8763 88.6245C10.8202 88.6069 10.7771 88.5619 10.7625 88.5054C10.7479 88.4489 10.7641 88.3887 10.8051 88.3467C10.86 88.291 16.3385 82.6898 19.5987 79.6183C20.1671 79.0826 20.3131 78.2272 19.9537 77.5381C17.6297 73.0816 14.0403 72.2193 12.0471 72.1125ZM7.68911 96.3379C5.14745 96.3379 2.91583 96.1494 1.40741 95.6526C0.81257 95.4565 0.399883 95.0353 0.181102 94.3996C-0.618171 92.0783 1.35971 87.5187 3.53577 84.2649C3.98387 83.5949 4.57207 82.6799 5.25321 81.6215C7.00575 78.8972 9.40593 75.1656 11.8296 71.8423C11.8627 71.7965 11.9161 71.7691 11.9722 71.7736C14.018 71.8629 17.8138 72.71 20.2508 77.3832C20.6791 78.2051 20.5055 79.2238 19.8285 79.8618C16.9265 82.5967 12.2615 87.3402 11.2442 88.3772C13.7323 88.9877 20.1036 88.9732 23.5872 88.9648C25.58 88.961 26.0854 88.9648 26.2492 89.0075C27.3207 88.8954 27.8774 88.8015 28.0414 88.7511C28.5325 88.6008 29.0996 88.291 29.6999 87.9621C30.2839 87.6423 30.8878 87.3119 31.4513 87.1181C32.4821 86.7648 36.861 86.1268 37.5007 86.4649C37.5933 86.5137 37.6282 86.5801 37.6411 86.6274C37.742 86.9952 37.6857 87.5576 36.8447 88.1483C36.3398 88.5031 34.7004 88.919 33.8608 89.1151C35.1027 89.5119 38.6449 90.2865 39.6799 90.0293C40.6926 89.7775 42.6292 89.8683 43.2401 90.5803C43.395 90.7611 43.5411 91.0687 43.3575 91.5067C42.6004 93.3152 36.6556 95.0521 35.1265 95.3558C34.1694 95.5466 32.7263 95.2436 31.1986 94.9223C30.1914 94.711 29.15 94.4919 28.1902 94.4011C28.0091 94.3866 26.8662 94.54 25.4191 94.7377C21.4367 95.281 13.6983 96.3379 7.68911 96.3379Z" fill="black"/>
<path d="M46.9602 73.4285C46.9602 73.4285 49.0652 77.4523 51.366 80.8611C52.2474 82.1668 53.9979 82.5506 55.3501 81.7432C56.9587 80.7825 58.9054 79.5455 59.9753 78.5931C62.0143 76.7777 65.9878 72.5456 67.0576 71.0102C68.9959 68.2302 67.62 68.1974 68.4823 65.2946C68.8967 63.9019 69.2332 60.1276 69.8552 59.9605C70.8724 59.6873 72.1567 61.1883 71.8934 64.1362C71.6767 66.5575 72.8763 67.2412 73.1937 68.4378C73.7233 70.431 73.7012 71.452 73.7012 71.452C73.7012 71.452 61.1421 86.8934 55.241 91.5788C53.434 93.0135 50.9646 93.3042 48.8553 92.3625L47.276 91.6582L45.2012 73.2171L46.9602 73.4285Z" fill="white"/>
<path d="M47.4312 91.5445L48.9231 92.2099C50.9977 93.1356 53.3785 92.8433 55.136 91.4476C60.7959 86.9544 72.7644 72.3349 73.5328 71.3933C73.5282 71.156 73.4794 70.167 73.0315 68.4805C72.9338 68.1127 72.74 67.7838 72.5354 67.4366C72.0852 66.672 71.5755 65.8058 71.7258 64.1217C71.9059 62.1071 71.3435 60.8625 70.7567 60.3695C70.4789 60.136 70.1744 60.0482 69.8982 60.1223C69.5975 60.2032 69.2671 62.1056 69.0694 63.2418C68.926 64.0667 68.7901 64.8459 68.6429 65.3426C68.3002 66.4957 68.3178 67.1794 68.3338 67.7823C68.3582 68.6919 68.3773 69.41 67.1945 71.1063C66.1376 72.6226 62.2175 76.8205 60.0862 78.7183C58.982 79.7012 56.9476 80.9839 55.4351 81.8867C54.005 82.7414 52.1561 82.3323 51.2266 80.9549C49.1226 77.8377 47.1591 74.1633 46.8525 73.5841L45.3908 73.4086L47.4312 91.5445ZM51.4158 93.0791C50.5291 93.0791 49.6337 92.8937 48.7867 92.5159L47.2073 91.8116C47.153 91.7872 47.1156 91.736 47.109 91.6773L45.0343 73.2362C45.0285 73.185 45.0464 73.1347 45.0827 73.0988C45.119 73.0622 45.1693 73.0446 45.2207 73.0507L46.9796 73.2621C47.0344 73.2682 47.0825 73.3018 47.1081 73.3506C47.1291 73.3911 49.2354 77.4058 51.5044 80.7672C52.3339 81.9973 53.9852 82.3629 55.2634 81.5998C56.7637 80.7039 58.779 79.4333 59.8634 78.468C61.9375 76.6213 65.8942 72.3853 66.9198 70.9141C68.0393 69.3085 68.0225 68.6721 67.9996 67.7914C67.9828 67.1634 67.9637 66.4507 68.3216 65.2473C68.4635 64.7688 68.5971 63.9996 68.739 63.1846C69.1229 60.9762 69.3541 59.9216 69.8112 59.7987C70.1958 59.6949 70.6079 59.8071 70.9719 60.1131C71.8158 60.822 72.2226 62.3314 72.0593 64.1514C71.9189 65.728 72.3996 66.5453 72.8239 67.2664C73.0406 67.6342 73.2459 67.9822 73.355 68.395C73.8854 70.3883 73.8694 71.4131 73.8686 71.4559C73.8678 71.4932 73.8541 71.5291 73.8312 71.5581C73.7053 71.7122 61.1919 87.0674 55.3443 91.7101C54.2065 92.6136 52.8215 93.0791 51.4158 93.0791Z" fill="black"/>
<path d="M76.9364 73.481C75.7048 73.903 74.3037 73.0712 73.813 71.6282L66.2148 49.37L70.6561 47.85L78.2657 70.1409C78.7511 71.571 78.1574 73.0636 76.9364 73.481Z" fill="black"/>
<path d="M66.427 49.4744L73.9711 71.5738C74.2168 72.298 74.7189 72.8902 75.3477 73.2C75.8491 73.4457 76.3931 73.49 76.8815 73.3228C78.0117 72.936 78.5611 71.5326 78.1063 70.1941L70.5516 48.0626L66.427 49.4744ZM76.2756 73.7578C75.9147 73.7578 75.5476 73.6716 75.1996 73.5006C74.4915 73.1519 73.9283 72.4895 73.6544 71.6822L66.0562 49.424C66.0256 49.3363 66.073 49.2409 66.1599 49.2111L70.6012 47.6918C70.6439 47.6773 70.6897 47.6803 70.7294 47.6994C70.7691 47.7193 70.7996 47.7536 70.8141 47.7963L78.423 70.0865C78.9373 71.5998 78.294 73.1931 76.9899 73.6395C76.7594 73.7189 76.5191 73.7578 76.2756 73.7578Z" fill="black"/>
<path d="M69.871 28.6357L55.5056 38.8865L49.9098 44.6922L47.7147 48.5771L47.7 48.6077C47.2683 49.2799 47.5146 50.8298 48.3314 52.4064C49.1393 53.9646 50.2655 55.0452 51.0643 55.107L51.0399 55.1192L55.2637 55.5732L63.1633 54.3111L79.9325 48.3139L100.774 51.8844L100.921 51.889C95.6692 50.9298 88.6036 43.9329 83.4717 34.0309C78.346 24.1403 76.7114 14.365 78.9595 9.54524L78.955 9.54294L69.9862 28.3939L69.871 28.6357Z" fill="white"/>
<path d="M102.165 24.4353C108.534 36.7251 109.512 48.8355 104.35 51.485C99.1879 54.1345 89.8399 46.3196 83.471 34.0306C77.1014 21.7408 76.1231 9.62962 81.2855 6.98013C86.4471 4.33064 95.7951 12.1456 102.165 24.4353Z" fill="white"/>
<path d="M83.5376 6.62822C82.7516 6.62822 82.022 6.79076 81.362 7.12881C80.1517 7.75074 79.265 8.92059 78.7262 10.6055C77.0565 15.832 78.9773 24.9961 83.62 33.9534C89.9362 46.1416 99.2033 53.9398 104.273 51.3361C105.484 50.7149 106.371 49.5451 106.909 47.8594C108.579 42.6337 106.658 33.4688 102.016 24.5123C96.521 13.909 88.7938 6.62822 83.5376 6.62822ZM102.105 52.1709C99.8626 52.1709 97.1612 50.9171 94.2561 48.4882C90.2956 45.1778 86.4129 40.0704 83.3224 34.1075C78.6415 25.0754 76.7116 15.8106 78.4072 10.504C78.9742 8.73057 79.9167 7.49434 81.2093 6.8312C83.7696 5.51714 87.3813 6.63433 91.38 9.97672C95.3405 13.2878 99.2231 18.3945 102.314 24.3581C106.995 33.3902 108.924 42.655 107.229 47.9616C106.662 49.7351 105.719 50.9705 104.427 51.6337C103.727 51.9931 102.948 52.1709 102.105 52.1709Z" fill="black"/>
<path d="M102.105 52.1709C99.8626 52.1709 97.1612 50.9171 94.2561 48.4882C90.2956 45.1778 86.4129 40.0704 83.3224 34.1075C78.6415 25.0754 76.7116 15.8106 78.4072 10.504C78.9742 8.73056 79.9167 7.49433 81.2093 6.8312C82.9294 5.94829 85.1714 6.16806 87.6919 7.46762C90.1102 8.71301 92.7314 10.9168 95.2741 13.8403C95.3351 13.9105 95.3275 14.0166 95.258 14.0768C95.1878 14.1371 95.0825 14.1303 95.0215 14.0608C89.8507 8.11473 84.6158 5.45914 81.362 7.12881C80.1517 7.75073 79.265 8.92058 78.7262 10.6055C77.0565 15.832 78.9773 24.9961 83.62 33.9534C89.1151 44.5559 96.8422 51.8367 102.098 51.8374C102.884 51.8374 103.614 51.6749 104.273 51.3361C105.484 50.7149 106.371 49.5451 106.909 47.8594C108.579 42.6337 106.658 33.4688 102.016 24.5123C100.632 21.8406 99.0804 19.33 97.4062 17.0491C97.3512 16.9751 97.3673 16.8698 97.442 16.8156C97.5161 16.7607 97.6214 16.7767 97.6756 16.8515C99.3605 19.1454 100.921 21.6712 102.314 24.3581C106.995 33.3902 108.924 42.655 107.229 47.9616C106.662 49.7351 105.719 50.9705 104.427 51.6337C103.727 51.9931 102.948 52.1709 102.105 52.1709Z" fill="black"/>
<path d="M92.1719 29.5816C93.647 32.4264 93.8737 35.2308 92.6779 35.8444C91.4829 36.4579 89.318 34.6486 87.8436 31.803C86.3686 28.9574 86.1419 26.153 87.3377 25.5394C88.5327 24.9259 90.6976 26.736 92.1719 29.5816Z" fill="white"/>
<path d="M87.8574 25.5863C87.6963 25.5863 87.5475 25.6199 87.4132 25.6886C87.1645 25.816 86.9805 26.0617 86.8668 26.4181C86.4899 27.5971 86.9317 29.6804 87.9917 31.7255C89.3973 34.4375 91.508 36.2552 92.6008 35.6951C92.8496 35.5669 93.0335 35.322 93.1472 34.9656C93.5241 33.7859 93.0823 31.7026 92.0224 29.6582C90.7892 27.2781 89.0127 25.5863 87.8574 25.5863ZM92.1605 36.1309C90.8487 36.1309 89.0196 34.4368 87.6941 31.8796C86.5952 29.759 86.145 27.5757 86.5479 26.3159C86.6898 25.8717 86.9294 25.5604 87.2598 25.3902C88.5579 24.724 90.7793 26.5318 92.32 29.5041C93.4188 31.624 93.8683 33.8072 93.4662 35.0671C93.3242 35.512 93.0846 35.8233 92.7542 35.9935C92.5726 36.0858 92.3734 36.1309 92.1605 36.1309Z" fill="black"/>
<path d="M100.941 49.3213C98.9745 49.3213 96.6066 48.2232 94.0609 46.0949C90.5941 43.1966 87.1953 38.7264 84.4908 33.5075C80.393 25.601 78.705 17.4893 80.1892 12.842C80.6868 11.2853 81.5147 10.2001 82.651 9.6171C85.2585 8.27862 89.1007 9.82009 93.1917 13.8462C93.2581 13.9111 93.2589 14.0172 93.194 14.0828C93.1291 14.1484 93.0231 14.1492 92.9575 14.0843C88.9748 10.1665 85.2738 8.6472 82.8044 9.91471C81.7505 10.4557 80.9783 11.4753 80.509 12.9442C79.0499 17.5106 80.7295 25.5217 84.7884 33.3534C89.5922 42.622 96.3433 48.9878 100.933 48.9886C101.617 48.9886 102.254 48.8466 102.829 48.5513C103.883 48.0103 104.655 46.9915 105.124 45.5226C106.583 40.9554 104.903 32.9444 100.845 25.1127C99.6193 22.7493 98.2458 20.5295 96.7623 18.5179C96.7073 18.4431 96.7234 18.3378 96.7974 18.2829C96.8722 18.2287 96.9767 18.244 97.0317 18.3188C98.5258 20.3448 99.9085 22.5791 101.142 24.9593C105.24 32.8658 106.928 40.9768 105.443 45.6241C104.946 47.1816 104.118 48.2667 102.982 48.8497C102.366 49.1656 101.682 49.3213 100.941 49.3213Z" fill="black"/>
<path d="M51.1475 54.9628L55.2575 55.4047L63.1198 54.1479L79.8744 48.156C79.9011 48.1461 79.9309 48.1438 79.9591 48.1483L98.6849 51.3572C93.6248 49.1373 87.7107 42.5785 83.3214 34.108C78.964 25.6994 77.0174 17.1588 78.0834 11.7614L70.0205 28.7076C70.0083 28.7335 69.99 28.7556 69.9671 28.7724L55.6139 39.014L50.0436 44.793L47.8493 48.6802C47.8464 48.6863 47.8431 48.6924 47.8393 48.6985C47.4409 49.3182 47.7098 50.8452 48.4786 52.3294C49.2325 53.7839 50.3248 54.882 51.0757 54.94C51.1017 54.9422 51.1261 54.9499 51.1475 54.9628ZM55.2621 55.7412C55.256 55.7412 55.2499 55.7404 55.2446 55.7397L51.0208 55.2856C50.9956 55.2833 50.9719 55.275 50.9513 55.262C50.0795 55.1223 48.9802 54.025 48.1811 52.4835C47.3376 50.8558 47.0856 49.2678 47.5518 48.5261L47.5623 48.5047L49.7623 44.6098C49.7693 44.5976 49.7778 44.5862 49.7875 44.5763L55.3834 38.7698C55.3903 38.763 55.3979 38.7561 55.4063 38.75L69.7366 28.5244L78.8023 9.47129C78.8213 9.43009 78.8564 9.3988 78.8992 9.3843C78.9412 9.3698 78.9877 9.37286 79.0281 9.3927C79.1098 9.43391 79.148 9.53387 79.1098 9.61552C76.8136 14.5391 78.626 24.3197 83.619 33.9539C88.6196 43.6033 95.5844 50.7444 100.949 51.7242C101.035 51.7395 101.095 51.8189 101.086 51.9059C101.076 51.9929 101.002 52.0524 100.915 52.0562L100.767 52.0524C100.759 52.0516 100.751 52.0508 100.744 52.0501L79.9462 48.4864L63.2182 54.4691C63.2083 54.4722 63.1984 54.4752 63.1884 54.4767L55.2888 55.7389C55.2797 55.7404 55.2713 55.7412 55.2621 55.7412Z" fill="black"/>
<path d="M69.898 28.5782L78.9545 9.54263L78.9591 9.54492C76.711 14.3647 78.3456 24.14 83.4713 34.0306C88.6032 43.9326 95.6688 50.9295 100.92 51.8887L100.773 51.8841L79.9664 48.3189L79.4841 48.2388C77.0659 47.8114 73.8341 44.6644 71.5235 40.1812C69.1517 35.5789 68.7328 30.9904 69.7828 28.8102L69.898 28.5782Z" fill="white"/>
<path d="M78.0842 11.7608L70.0488 28.6506C70.048 28.6513 70.048 28.6521 70.0472 28.6529L69.9328 28.8841C68.9629 30.8994 69.2483 35.401 71.6719 40.104C73.9055 44.4376 77.0563 47.6404 79.5127 48.0738L79.9935 48.1539L98.6857 51.3567C93.6255 49.1368 87.7115 42.5779 83.3221 34.1075C78.9648 25.6989 77.0182 17.1583 78.0842 11.7608ZM100.92 52.0557C100.919 52.0557 100.917 52.0557 100.915 52.0557L100.768 52.0518C100.76 52.0511 100.752 52.0503 100.745 52.0496L79.9378 48.4843L79.4563 48.4035C76.9006 47.9525 73.6529 44.6795 71.3743 40.2573C68.7851 35.2339 68.6553 30.7644 69.6313 28.7376L69.7466 28.5048L78.8031 9.47077C78.8221 9.42956 78.8572 9.39827 78.9 9.38377C78.9419 9.36927 78.9885 9.37234 79.0289 9.39218C79.1106 9.43339 79.1487 9.53335 79.1106 9.615C76.8144 14.5385 78.6268 24.3192 83.6198 33.9534C88.6204 43.6028 95.5852 50.7439 100.95 51.7237C101.036 51.739 101.096 51.8183 101.086 51.9053C101.077 51.9908 101.006 52.0557 100.92 52.0557Z" fill="black"/>
<path d="M55.0347 55.7158C55.0286 55.7158 55.0225 55.7151 55.0164 55.7143L51.0208 55.2847C50.9956 55.2824 50.9719 55.274 50.9513 55.261C50.0795 55.1214 48.9802 54.024 48.1811 52.4826C47.3376 50.8549 47.0856 49.2668 47.5518 48.5251L47.5623 48.5037L49.7623 44.6089C49.8079 44.5287 49.9102 44.5005 49.9906 44.5455C50.0711 44.5913 50.0995 44.6936 50.054 44.7737L47.8493 48.6793C47.8464 48.6854 47.8431 48.6915 47.8393 48.6976C47.4409 49.3172 47.7098 50.8442 48.4786 52.3284C49.2325 53.7829 50.3248 54.881 51.0757 54.939C51.1017 54.9413 51.1261 54.9489 51.1475 54.9619L55.0522 55.3816C55.1446 55.3915 55.211 55.4739 55.2011 55.5663C55.1919 55.6517 55.1186 55.7158 55.0347 55.7158Z" fill="black"/>
<path d="M55.3003 55.5498C54.0008 55.4575 52.1869 53.6176 50.869 51.0757C49.4737 48.3828 49.1463 45.5967 49.9998 44.6046L47.7147 48.5766L47.7 48.6071C47.2683 49.2794 47.5146 50.8293 48.3314 52.4058C49.1393 53.9641 50.2655 55.0446 51.0643 55.1064L51.0399 55.1187L55.3003 55.5498Z" fill="white"/>
<path d="M51.1467 54.9613L54.0625 55.2559C52.9385 54.5424 51.7053 53.0566 50.7194 51.1527C49.7652 49.3121 49.29 47.4066 49.3694 46.0338L47.8493 48.6795C47.8464 48.6856 47.8431 48.6917 47.8393 48.6978C47.4409 49.3174 47.7098 50.8444 48.4786 52.3286C49.2325 53.7831 50.3248 54.8812 51.0757 54.9392C51.1017 54.9415 51.1253 54.9491 51.1467 54.9613ZM55.2987 55.7168C55.2949 55.7168 55.2911 55.7168 55.2873 55.7168C55.2545 55.7145 55.2217 55.7107 55.1881 55.7069L51.0215 55.2849C50.9964 55.2826 50.9727 55.2742 50.9513 55.2612C50.0795 55.1216 48.9802 54.0242 48.1811 52.4828C47.3376 50.8551 47.0856 49.2671 47.5518 48.5253L47.5623 48.504L49.571 45.0112C49.6489 44.8113 49.7488 44.6381 49.8713 44.4954C49.9276 44.4298 50.0246 44.4183 50.0951 44.4679C50.1656 44.5183 50.1865 44.6137 50.1434 44.6884L49.8646 45.173C49.414 46.3864 49.8603 48.768 51.0162 50.9985C52.2784 53.4344 53.9923 55.2109 55.2239 55.3734L55.3155 55.3826C55.4071 55.3925 55.4735 55.4726 55.4658 55.5642C55.4582 55.6512 55.385 55.7168 55.2987 55.7168Z" fill="black"/>
<path d="M62.8744 54.3567L63.2094 54.2903C61.391 54.6688 58.5232 51.9277 56.4987 48.0214C54.4345 44.038 54.0408 40.06 55.5052 38.8863L55.3182 39.0801L50.0141 44.5882C49.1422 45.565 49.4653 48.3678 50.8686 51.0761C52.2231 53.6897 54.1369 55.5479 55.4403 55.541L62.8744 54.3567Z" fill="black"/>
<path d="M54.6449 40.0202L50.1338 44.7048C49.2915 45.648 49.6774 48.415 51.0164 50.9989C52.3289 53.5316 54.181 55.3677 55.4263 55.373L61.9875 54.3283C60.2171 53.7049 58.0331 51.3476 56.3489 48.0984C54.7495 45.0124 54.1352 41.8653 54.6449 40.0202ZM55.4324 55.708C54.0467 55.708 52.1099 53.8376 50.7195 51.153C49.297 48.4089 48.9398 45.5389 49.8881 44.4767L55.0898 39.0747C55.1829 38.9533 55.2859 38.8465 55.3996 38.7557C55.4683 38.7 55.5683 38.7076 55.6278 38.7733C55.6873 38.8389 55.6858 38.9388 55.6247 39.0022L55.3233 39.3151C54.2634 40.7375 54.7914 44.3645 56.6465 47.9442C58.6489 51.807 61.4381 54.4573 63.1512 54.1307L63.1756 54.1261C63.2657 54.107 63.3542 54.1658 63.3725 54.2566C63.3908 54.3466 63.3328 54.4352 63.242 54.4542C63.2336 54.4558 63.2252 54.4573 63.2161 54.4588L62.9063 54.5214C62.9047 54.5214 62.9025 54.5221 62.9002 54.5221L55.466 55.7057C55.4546 55.7072 55.4431 55.708 55.4324 55.708Z" fill="black"/>
<path d="M87.3372 25.5386C86.1414 26.1522 86.3177 28.9833 87.8431 31.8022C90.4011 36.5288 92.4347 35.9695 92.6736 35.8833C92.6782 35.8817 92.6804 35.8878 92.6766 35.8909L88.285 39.4248C86.9976 37.6155 85.7652 35.6024 84.6396 33.4299C83.5599 31.3474 82.6579 29.2702 81.9375 27.2587L87.3372 25.5386Z" fill="black"/>
<path d="M82.1553 27.3656C82.8787 29.3603 83.7647 31.3734 84.7903 33.3529C85.8602 35.4171 87.0468 37.3775 88.3204 39.183L92.129 36.1176C91.256 36.0756 89.6169 35.4278 87.6977 31.8816C86.5859 29.8274 86.1272 27.6594 86.5309 26.3575C86.5828 26.1897 86.6469 26.0409 86.7247 25.9104L82.1553 27.3656ZM88.2868 39.5928C88.2792 39.5928 88.2716 39.592 88.2639 39.5905C88.2181 39.5844 88.1769 39.56 88.1502 39.5226C86.8285 37.6636 85.5984 35.6399 84.4927 33.507C83.432 31.4604 82.5201 29.3771 81.7814 27.3152C81.7661 27.2725 81.7684 27.2252 81.789 27.184C81.8088 27.1435 81.8447 27.113 81.8882 27.0985L87.2879 25.3792C87.3711 25.3533 87.4604 25.3945 87.494 25.4754C87.5268 25.5555 87.4924 25.6486 87.4154 25.6883C87.1574 25.8203 86.9674 26.079 86.8507 26.4567C86.479 27.6579 86.9377 29.7739 87.9923 31.7229C90.4876 36.3328 92.4076 35.8017 92.6189 35.7261C92.6945 35.6987 92.7838 35.7307 92.8242 35.8009C92.8662 35.8719 92.8486 35.968 92.7845 36.0207L88.3921 39.5554C88.3624 39.5798 88.325 39.5928 88.2868 39.5928Z" fill="black"/>
<path d="M75.5871 58.3835C74.9835 58.5025 73.2955 59.5441 73.3863 62.3173C73.4436 64.051 74.7134 64.8111 75.6573 65.1369C76.3151 65.3643 76.8356 65.8756 77.0485 66.5372L77.5521 68.1016C77.5521 68.1016 80.8869 57.338 75.5871 58.3835Z" fill="white"/>
<path d="M76.2754 58.4782C76.0724 58.4782 75.8534 58.5018 75.6192 58.5476C75.159 58.6384 73.4626 59.5427 73.5534 62.312C73.6061 63.9183 74.7561 64.6486 75.7115 64.979C76.4235 65.2248 76.9828 65.7887 77.2072 66.4862L77.5414 67.5247C77.9924 65.8681 79.208 60.7774 77.6536 59.0505C77.3094 58.6674 76.8554 58.4782 76.2754 58.4782ZM77.5513 68.2695C77.4788 68.2695 77.414 68.2222 77.3918 68.1535L76.8882 66.5892C76.6928 65.9818 76.2243 65.5109 75.6024 65.2957C74.1113 64.7806 73.2642 63.7245 73.2184 62.3234C73.1284 59.5877 74.753 58.3774 75.5543 58.2187C76.57 58.0188 77.3605 58.2233 77.9031 58.8261C79.8864 61.0307 77.8009 67.862 77.7116 68.1513C77.6894 68.2215 77.6253 68.2688 77.5521 68.2695H77.5513Z" fill="black"/>
<path d="M27.5449 58.913C27.5449 58.913 29.8686 60.0424 31.2737 62.1936C32.6787 64.3447 36.8938 67.5711 37.9204 67.2491C38.9472 66.9263 38.0826 64.721 37.6503 63.2688C37.218 61.8174 36.0349 60.7834 36.0349 60.7834C36.0349 60.7834 37.0558 57.9721 37.7043 56.278C38.0274 55.434 38.2884 54.5442 38.4637 53.888C38.6113 53.3355 39.1548 52.986 39.7223 53.0753C40.7375 53.2355 42.2416 53.392 42.892 53.0508C43.6322 52.6632 43.4738 50.3815 43.3275 49.1384C43.2697 48.647 43.3966 48.1487 43.689 47.748C43.8388 47.5428 44.0124 47.1399 44.061 46.9781C44.061 46.9781 44.0066 46.7789 43.0339 46.0128C42.0612 45.2458 41.9409 43.9005 41.8384 43.4915C41.2304 41.0717 39.9739 39.4379 39.2039 38.9739C39.2039 38.9739 38.3123 44.8223 36.2453 45.9517C36.2453 45.9517 35.3941 46.5568 33.8945 45.6297C33.8945 45.6297 32.5571 45.1451 32.0707 46.1944C31.5844 47.2429 33.1245 49.1789 32.476 51.72C32.1512 52.9928 30.1929 58.1598 27.5449 58.913Z" fill="white"/>
<path d="M27.9571 58.943C28.6617 59.3436 30.3063 60.4036 31.4154 62.1015C32.8686 64.3267 37.0042 67.3615 37.8717 67.0883C37.9847 67.0532 38.3291 66.9449 38.2132 65.9971C38.1374 65.3775 37.8936 64.6037 37.6783 63.9207C37.612 63.7101 37.5479 63.5071 37.4912 63.3163C37.0775 61.9267 35.9375 60.9187 35.9261 60.9087C35.874 60.8637 35.8552 60.7905 35.8788 60.7256C35.889 60.6974 36.9078 57.8937 37.5492 56.2172C37.8775 55.3602 38.1405 54.4537 38.3032 53.8447C38.4734 53.2075 39.095 52.8054 39.75 52.9099C41.262 53.148 42.3509 53.1449 42.8158 52.9023C43.28 52.6588 43.4097 51.2593 43.1627 49.1577C43.0992 48.6182 43.2386 48.0825 43.5552 47.6491C43.6745 47.485 43.8149 47.1737 43.8787 46.9982C43.81 46.9081 43.59 46.6624 42.9318 46.1435C42.051 45.4498 41.8299 44.3052 41.7236 43.755C41.7061 43.6649 41.6916 43.5894 41.6773 43.5321C41.1176 41.3039 40.0206 39.8235 39.327 39.2649C39.1226 40.4424 38.2114 45.0591 36.3341 46.0946C36.226 46.1656 35.3231 46.7005 33.8239 45.781C33.6771 45.7322 32.6185 45.4132 32.2242 46.264C32.04 46.6609 32.1978 47.2431 32.3976 47.9803C32.6746 49.0021 33.0193 50.2734 32.6398 51.7607C32.3854 52.758 30.5926 57.8006 27.9571 58.943ZM37.7738 67.4355C36.3819 67.4355 32.4238 64.258 31.1348 62.2846C29.7728 60.1991 27.4959 59.0742 27.4731 59.0628C27.4108 59.0323 27.3735 58.9666 27.3795 58.898C27.3856 58.8285 27.4338 58.7705 27.5006 58.7514C29.9468 58.0555 31.9129 53.2548 32.3152 51.6783C32.6729 50.2764 32.341 49.0517 32.0742 48.068C31.8566 47.2652 31.6847 46.6311 31.9202 46.1229C32.3559 45.1827 33.4404 45.2858 33.9531 45.4712C33.9639 45.475 33.9743 45.4803 33.9841 45.4865C35.3582 46.3365 36.119 45.8359 36.1509 45.8138C36.1554 45.8108 36.1615 45.807 36.1664 45.8047C38.1378 44.7272 39.0309 39.0062 39.0397 38.9482C39.0481 38.8933 39.0836 38.8459 39.1341 38.8223C39.185 38.7979 39.2439 38.8017 39.2917 38.8299C40.0258 39.2725 41.3534 40.8674 42.0022 43.4505C42.0177 43.5115 42.0337 43.594 42.0525 43.6916C42.1587 44.2411 42.3563 45.2636 43.139 45.8802C43.7942 46.3968 44.1795 46.7708 44.2241 46.9333C44.2323 46.9638 44.2319 46.9959 44.2229 47.0264C44.1733 47.1905 43.9933 47.617 43.8257 47.8467C43.5591 48.2115 43.4419 48.6632 43.4953 49.1188C43.6876 50.7541 43.7527 52.7893 42.9712 53.1991C42.2944 53.5532 40.8175 53.4174 39.6977 53.2403C39.2128 53.1633 38.7525 53.4609 38.627 53.9309C38.4621 54.5475 38.1956 55.4663 37.8622 56.337C37.2921 57.8266 36.4233 60.209 36.2318 60.7355C36.5182 61.0072 37.4344 61.9519 37.8123 63.2209C37.8685 63.4094 37.932 63.6109 37.9978 63.82C38.2174 64.5167 38.4663 65.3057 38.5459 65.9567C38.645 66.7686 38.4521 67.257 37.9721 67.4081C37.9137 67.4264 37.8473 67.4355 37.7738 67.4355Z" fill="black"/>
<path d="M36.0128 63.0234C35.9438 63.0234 35.8791 62.9799 35.8549 62.9113C35.8386 62.8647 35.4642 61.7697 35.9644 60.4983C35.9983 60.4121 36.0954 60.3694 36.1815 60.4037C36.2676 60.4373 36.31 60.5342 36.2762 60.6204C35.8212 61.7773 36.1674 62.7899 36.1709 62.7999C36.2015 62.8876 36.1557 62.983 36.0684 63.0135C36.0501 63.0204 36.0313 63.0234 36.0128 63.0234Z" fill="black"/>
<path d="M34.5869 50.1182C33.4795 50.1182 32.5491 48.9918 32.1529 48.2585C32.1091 48.1768 32.1393 48.0753 32.2207 48.0318C32.3017 47.9876 32.4035 48.0173 32.4477 48.099C32.4603 48.1226 33.7297 50.4242 35.2528 49.6069C35.3342 49.5626 35.436 49.5931 35.4796 49.6748C35.5233 49.7564 35.4929 49.8579 35.4113 49.9014C35.1297 50.0533 34.8531 50.1182 34.5869 50.1182Z" fill="black"/>
<path d="M93.1926 56.2693C92.6363 56.2693 92.1761 56.7119 92.1616 57.2682C92.1547 57.5421 92.2555 57.8023 92.4447 58.0015C92.6347 58.1999 92.8911 58.3136 93.1666 58.3205C93.1758 58.3212 93.1849 58.3212 93.1933 58.3212C93.7504 58.3212 94.2105 57.8779 94.225 57.3216C94.2319 57.0476 94.1312 56.7874 93.9419 56.589C93.7519 56.3898 93.4955 56.2761 93.22 56.2693C93.2109 56.2693 93.2017 56.2693 93.1926 56.2693ZM93.1941 58.6562C93.1819 58.6562 93.1697 58.6563 93.1582 58.6555C92.7935 58.6463 92.4539 58.496 92.2021 58.2327C91.951 57.9687 91.8175 57.623 91.8266 57.2598C91.8457 56.5219 92.4554 55.9343 93.1926 55.9343C93.2048 55.9343 93.2162 55.9343 93.2284 55.9343C93.5932 55.9434 93.9328 56.0938 94.1838 56.357C94.4357 56.6211 94.5692 56.9667 94.56 57.33C94.5402 58.0687 93.9312 58.6562 93.1941 58.6562Z" fill="black"/>
<path d="M29.3626 120.111C28.8058 120.111 28.3459 120.554 28.3315 121.111C28.3243 121.385 28.4249 121.645 28.6144 121.843C28.8043 122.042 29.0606 122.155 29.3363 122.163C29.3453 122.163 29.3544 122.163 29.3634 122.163C29.9201 122.163 30.38 121.72 30.3945 121.163C30.4016 120.889 30.3011 120.629 30.1115 120.431C29.9216 120.232 29.6653 120.119 29.3896 120.112C29.3806 120.111 29.3716 120.111 29.3626 120.111ZM29.3634 122.498C29.3516 122.498 29.3397 122.498 29.3277 122.498C28.9629 122.488 28.6235 122.339 28.3721 122.075C28.1205 121.811 27.9871 121.466 27.9966 121.102C28.0161 120.351 28.6402 119.759 29.3983 119.776C29.7631 119.786 30.1024 119.936 30.3539 120.2C30.6055 120.463 30.7388 120.809 30.7293 121.173C30.7102 121.91 30.101 122.498 29.3634 122.498Z" fill="black"/>
<path d="M34.3607 127.191C34.3332 127.191 34.3053 127.185 34.2794 127.171C34.1986 127.125 34.1695 127.024 34.2146 126.943L34.7795 125.928C34.8247 125.848 34.9265 125.819 35.0074 125.864C35.0882 125.909 35.1173 126.011 35.0722 126.092L34.5073 127.105C34.4766 127.161 34.4196 127.191 34.3607 127.191Z" fill="black"/>
<path d="M36.3373 123.643C36.3097 123.643 36.2818 123.636 36.2559 123.622C36.1751 123.576 36.1461 123.475 36.1911 123.394L36.7561 122.38C36.8012 122.299 36.9031 122.271 36.984 122.315C37.0648 122.36 37.0938 122.462 37.0488 122.543L36.4839 123.557C36.4531 123.612 36.3962 123.643 36.3373 123.643Z" fill="black"/>
<path d="M37.9273 126.157C37.9003 126.157 37.8729 126.151 37.8474 126.137L36.8278 125.583C36.7465 125.538 36.7164 125.437 36.7606 125.356C36.8048 125.274 36.9062 125.245 36.9877 125.288L38.0075 125.843C38.0888 125.887 38.1189 125.989 38.0746 126.069C38.0443 126.126 37.9868 126.157 37.9273 126.157Z" fill="black"/>
<path d="M34.3589 124.218C34.3319 124.218 34.3045 124.211 34.2791 124.197L33.2595 123.643C33.1781 123.599 33.1481 123.497 33.1922 123.416C33.2365 123.335 33.338 123.304 33.4194 123.349L34.4392 123.903C34.5204 123.947 34.5506 124.048 34.5064 124.13C34.4759 124.186 34.4185 124.218 34.3589 124.218Z" fill="black"/>
<path d="M107.519 24.707C107.459 24.707 107.401 24.675 107.371 24.6178C107.328 24.5361 107.359 24.4346 107.441 24.3911L117.375 19.1082C117.457 19.0647 117.559 19.0959 117.602 19.1776C117.646 19.2593 117.614 19.3607 117.533 19.4042L107.598 24.6872C107.573 24.7009 107.546 24.707 107.519 24.707Z" fill="black"/>
<path d="M55.1639 12.3887C55.1036 12.3887 55.0456 12.3566 55.0159 12.3002C54.9724 12.2185 55.0029 12.117 55.0846 12.0735C67.6696 5.3811 76.382 0.746796 76.382 0.746796C76.4636 0.703299 76.5651 0.734583 76.6086 0.816235C76.6521 0.897886 76.6208 0.999373 76.5392 1.04287C76.5392 1.04287 67.8276 5.67719 55.2418 12.3696C55.2173 12.3826 55.1899 12.3887 55.1639 12.3887Z" fill="black"/>
<path d="M52.3299 20.8115C52.2697 20.8115 52.2117 20.7795 52.1819 20.723C52.1384 20.6414 52.1689 20.5399 52.2506 20.4964L67.3356 12.4731C67.418 12.4296 67.5187 12.4609 67.5622 12.5426C67.6057 12.6242 67.5752 12.7257 67.4935 12.7692L52.4078 20.7917C52.3834 20.8054 52.3559 20.8115 52.3299 20.8115Z" fill="black"/>
<path d="M64.3395 93.416C64.28 93.416 64.2213 93.3832 64.1915 93.3267C64.148 93.2451 64.1793 93.1436 64.2609 93.1001C77.1352 86.2543 86.0971 81.4872 86.0971 81.4872C86.1787 81.4437 86.2802 81.475 86.3237 81.5567C86.3672 81.6383 86.3359 81.7398 86.2543 81.7833C86.2543 81.7833 77.2924 86.5496 64.4181 93.3962C64.393 93.4099 64.3662 93.416 64.3395 93.416Z" fill="black"/>
<path d="M76.863 79.96C76.8035 79.96 76.7455 79.9279 76.7149 79.8714C76.6714 79.7898 76.7027 79.6883 76.7844 79.6448C92.5691 71.2514 104.188 65.0711 104.188 65.0711C104.27 65.0276 104.371 65.0589 104.415 65.1405C104.458 65.2222 104.427 65.3237 104.345 65.3672C104.345 65.3672 92.7263 71.5468 76.9416 79.9401C76.9172 79.9539 76.8897 79.96 76.863 79.96Z" fill="black"/>
<path d="M65.0605 111.561C65.0605 110.918 65.5848 110.396 66.2311 110.396C66.8767 110.396 67.401 110.918 67.401 111.561C67.401 112.203 66.8767 112.725 66.2311 112.725C65.5848 112.725 65.0605 112.203 65.0605 111.561Z" fill="black"/>
<path d="M95.8084 135.914C95.8008 135.914 95.7924 135.913 95.784 135.912L94.6271 135.74C92.9842 135.497 91.8105 134.2 92.0105 132.85C92.0242 132.759 92.1097 132.698 92.2012 132.709C92.2928 132.723 92.3554 132.807 92.3424 132.899C92.1692 134.067 93.2162 135.192 94.676 135.409L95.8328 135.581C95.9244 135.594 95.9878 135.68 95.974 135.771C95.9618 135.855 95.8901 135.914 95.8084 135.914Z" fill="white"/>
<path d="M96.1246 136.33C96.12 136.33 96.1162 136.33 96.1116 136.329C96.0192 136.322 95.9498 136.242 95.9574 136.15C96.0002 135.584 95.7674 135.031 95.3035 134.592C94.8296 134.146 94.1703 133.869 93.4484 133.815L92.2816 133.727C92.1892 133.72 92.1206 133.64 92.1274 133.548C92.1343 133.455 92.2152 133.386 92.3068 133.393L93.4735 133.481C94.2725 133.541 95.0036 133.849 95.5332 134.349C96.0727 134.858 96.3413 135.507 96.2909 136.175C96.2848 136.263 96.2116 136.33 96.1246 136.33Z" fill="white"/>
<path d="M101.511 13.3412C98.7624 10.5406 98.8197 6.03984 101.638 3.28734C104.457 0.53559 108.97 0.574497 111.718 3.37432C114.467 6.1749 114.41 10.6757 111.592 13.4282C108.773 16.1799 104.259 16.141 101.511 13.3412Z" fill="black"/>
<path d="M103.366 6.7899C103.7 6.33509 104.197 6.05122 104.763 5.98864C105.186 5.94209 105.589 6.03366 105.96 6.2603C106.148 6.37477 106.322 6.52128 106.481 6.69679C106.597 6.49076 106.736 6.31067 106.893 6.15805C107.206 5.85586 107.579 5.67958 108.002 5.63303C108.569 5.57045 109.116 5.74063 109.541 6.1115C109.962 6.47779 110.231 7.01196 110.298 7.61557C110.366 8.23674 110.198 8.83043 109.768 9.48517C109.383 10.0705 108.805 10.6848 108.135 11.3967C107.907 11.6402 107.647 11.9157 107.38 12.2087C107.309 12.2858 107.212 12.3346 107.107 12.346C107.003 12.3575 106.898 12.3308 106.812 12.2705C106.486 12.0431 106.172 11.8302 105.896 11.6425C105.086 11.0938 104.387 10.6191 103.884 10.1315C103.321 9.58589 103.026 9.04257 102.957 8.4214C102.89 7.81779 103.036 7.2386 103.366 6.7899Z" fill="white"/>
<path d="M118.547 10.4127C118.547 6.80247 121.474 3.87522 125.084 3.87522C128.695 3.87522 131.622 6.80247 131.622 10.4127C131.622 14.0237 128.695 16.9502 125.084 16.9502C121.474 16.9502 118.547 14.0237 118.547 10.4127Z" fill="white"/>
<path d="M125.085 4.04319C121.574 4.04319 118.716 6.90024 118.716 10.4128C118.716 13.9254 121.574 16.7832 125.085 16.7832C128.598 16.7832 131.456 13.9254 131.456 10.4128C131.456 6.90024 128.598 4.04319 125.085 4.04319ZM125.085 17.1182C121.389 17.1182 118.381 14.11 118.381 10.4128C118.381 6.71557 121.389 3.70818 125.085 3.70818C128.783 3.70818 131.791 6.71557 131.791 10.4128C131.791 14.11 128.783 17.1182 125.085 17.1182Z" fill="black"/>
<path d="M126.849 11.0648C126.483 11.0641 126.16 11.2419 125.95 11.5128L123.743 10.6535C123.745 10.6245 123.752 10.5963 123.752 10.5665C123.752 10.5116 123.743 10.4589 123.735 10.4055L125.998 9.35777C126.207 9.59662 126.51 9.75077 126.849 9.75153C127.479 9.75305 127.991 9.23796 127.991 8.60458C127.991 7.97121 127.479 7.45458 126.85 7.45306C126.221 7.45229 125.709 7.96663 125.709 8.60077C125.709 8.65571 125.717 8.70836 125.725 8.76178L123.462 9.80876C123.253 9.56991 122.951 9.41576 122.61 9.41576C121.982 9.41424 121.47 9.92856 121.469 10.5627C121.469 11.1961 121.981 11.7127 122.61 11.7135C122.977 11.7142 123.3 11.5372 123.509 11.2663L125.717 12.1248C125.715 12.1538 125.708 12.182 125.708 12.2118C125.708 12.8451 126.22 13.3618 126.849 13.3633C127.478 13.364 127.99 12.8497 127.99 12.2163C127.99 11.5822 127.479 11.0663 126.849 11.0648Z" fill="black"/>
<path d="M116.7 29.2852C117.323 25.7032 120.737 23.288 124.323 23.8909C127.909 24.4937 130.311 27.8872 129.687 31.4692C129.064 35.052 125.651 37.4672 122.065 36.8636C118.479 36.2607 116.077 32.868 116.7 29.2852Z" fill="black"/>
<path d="M121.551 33.5086L120.59 28.2973C120.541 28.031 120.788 27.8059 121.048 27.8799L126.737 29.4885C127.026 29.5702 127.098 29.9472 126.858 30.1296L122.131 33.7322C121.914 33.8977 121.601 33.7764 121.551 33.5086Z" fill="white"/>
<path d="M112.846 48.1301C114.159 44.2466 118.378 42.1451 122.269 43.4362C126.16 44.7274 128.25 48.9222 126.937 52.8056C125.624 56.689 121.405 58.7906 117.514 57.4994C113.622 56.2083 111.532 52.0135 112.846 48.1301Z" fill="white"/>
<path d="M119.929 43.2249C116.884 43.2249 114.03 45.1487 113.004 48.1836C112.383 50.0188 112.516 51.9823 113.377 53.7115C114.239 55.4414 115.726 56.7295 117.566 57.34C121.364 58.6007 125.496 56.5418 126.778 52.7523C127.398 50.9162 127.266 48.9535 126.405 47.2244C125.543 45.4944 124.055 44.2055 122.216 43.595C121.459 43.344 120.688 43.2249 119.929 43.2249ZM119.851 58.0459C119.058 58.0459 118.252 57.9208 117.46 57.6582C115.535 57.0195 113.978 55.6711 113.077 53.8611C112.175 52.051 112.037 49.9967 112.687 48.076C114.027 44.1124 118.349 41.959 122.321 43.2776C124.246 43.9163 125.803 45.2647 126.704 47.0748C127.606 48.8841 127.745 50.9384 127.095 52.8591C126.022 56.0328 123.037 58.0459 119.851 58.0459Z" fill="black"/>
<path d="M123.684 49.2663C123.609 51.1207 120.474 55.4566 119.724 56.4685C119.647 56.573 119.489 56.5662 119.421 56.4563C118.945 55.6901 117.387 53.1276 116.568 51.0535C116.244 50.2301 116.035 49.4846 116.056 48.9581C116.142 46.8511 117.918 45.2128 120.024 45.2982C122.131 45.3837 123.77 47.1602 123.684 49.2663Z" fill="black"/>
<path d="M121.614 49.1823C121.575 50.1453 120.763 50.8939 119.799 50.855C118.836 50.8161 118.088 50.0041 118.126 49.0403C118.165 48.0773 118.977 47.3287 119.941 47.3676C120.904 47.4065 121.653 48.2185 121.614 49.1823Z" fill="white"/>
</svg>
