<svg width="800" height="800" viewBox="0 0 800 800" fill="none" xmlns="http://www.w3.org/2000/svg">
<rect width="800" height="800" rx="400" fill="black"/>
<path d="M289.191 186.347C322.1 190.771 341.215 211.43 347.048 248.36C351.434 276.129 349.344 303.911 346.362 331.596C344.058 352.988 340.844 374.276 338.007 395.825C338.567 396.111 339.258 396.789 339.903 396.746C371.249 394.655 402.581 392.318 433.942 390.503C440.597 390.118 442.071 386.856 443.066 381.023C450.571 337.039 462.364 294.366 481.604 254.119C491.263 233.915 503.215 215.231 518.58 199.031C532.907 183.925 549.639 173.385 570.626 171.344C596.483 168.829 615.024 180.124 625.284 204.576C634.374 226.238 633.561 248.911 631.006 271.496C623.001 342.229 582.932 388.195 521.15 415.459C507.092 421.663 503.073 429.197 503.304 443.443C503.736 470.161 502.203 496.948 508.767 523.197C509.624 526.624 510.629 530.035 511.857 533.339C521.489 559.248 540.135 569.828 566.813 564.648C581.705 561.756 594.275 554.21 605.046 543.683C613.511 535.408 621.373 526.472 629.281 517.622C634.031 512.306 639.215 508.063 646.621 510.059C654.258 512.117 656.308 518.845 657.266 525.837C658.983 538.371 658.045 551.012 650.597 561.185C630.616 588.481 606.57 611.144 574.184 622.053C519.233 640.562 467.184 613.954 446.209 556.987C434.415 524.954 432.711 491.557 434.349 457.791C434.585 452.942 434.929 448.099 435.251 442.775C418.211 445.051 401.946 447.583 385.599 449.308C368.122 451.153 350.579 452.408 333.042 453.544C328.205 453.858 326.355 455.701 325.323 460.529C316.786 500.478 308.235 540.43 299.027 580.22C296.661 590.444 293.092 600.758 288.072 609.873C278.435 627.367 260.99 632.985 242.534 626.214C231.65 622.221 224.751 613.384 226.02 600.157C227.521 584.524 231.174 569.064 234.499 553.667C240.651 525.185 247.257 496.805 253.634 468.373C254.207 465.816 254.492 463.19 255.043 459.777C249.988 460.016 245.789 460.278 241.587 460.397C236.263 460.549 230.915 460.94 225.614 460.606C209.328 459.579 201.117 453.028 199.779 440.443C197.762 421.469 204.333 408.422 220.264 404.864C233.672 401.87 247.686 401.607 261.46 400.522C265.333 400.217 267.873 399.884 268.627 395.128C274.646 357.165 281.648 319.307 280.173 280.573C279.957 274.909 279.115 269.115 277.54 263.692C274.497 253.212 266.071 247.216 255.34 247.078C243.709 246.928 232.739 250.436 224.045 257.778C210.554 269.171 198.155 281.935 185.479 294.317C182.422 297.303 180.051 301.039 177.434 304.485C169.076 315.49 162.541 318.583 154.871 315.101C147.069 311.56 141.502 299.918 143.359 289.253C144.468 282.886 145.71 276.009 148.932 270.646C177.423 223.217 217.259 192.795 272.475 186.329C277.732 185.713 283.119 186.269 289.191 186.347ZM547.389 244.897C528.076 284.246 518.139 326.406 510.726 371.169C514.414 369.536 516.743 368.572 519.017 367.488C562.859 346.598 584.724 310.381 588.596 261.963C589.418 251.688 589.798 241.093 588.184 231.014C587.338 225.722 582.591 218.806 578.019 217.109C574.04 215.633 566.556 219.13 562.898 222.806C556.939 228.795 552.835 236.721 547.389 244.897Z" fill="#FCFCFC"/>
</svg>
